<?xml version="1.0" standalone="no"?>
<!DOCTYPE svg PUBLIC "-//W3C//DTD SVG 20010904//EN"
 "http://www.w3.org/TR/2001/REC-SVG-20010904/DTD/svg10.dtd">
<svg version="1.0" xmlns="http://www.w3.org/2000/svg"
 width="813.000000pt" height="379.000000pt" viewBox="0 0 813.000000 379.000000"
 preserveAspectRatio="xMidYMid meet">

<g transform="translate(0.000000,379.000000) scale(0.100000,-0.100000)"
fill="#000000" stroke="none">
<path d="M6670 2979 c-335 -45 -566 -267 -659 -635 -39 -155 -46 -232 -46
-499 0 -209 4 -280 19 -360 56 -309 181 -520 375 -635 128 -76 269 -110 453
-110 445 1 722 261 804 755 26 154 26 523 1 683 -70 443 -270 705 -597 781
-105 25 -251 33 -350 20z m263 -425 c185 -63 268 -321 254 -783 -11 -353 -73
-516 -230 -599 -47 -24 -62 -27 -157 -27 -95 0 -111 3 -162 28 -125 61 -191
191 -219 431 -16 136 -6 516 16 615 43 195 123 301 255 342 46 14 194 10 243
-7z"/>
<path d="M680 2923 c-19 -10 -45 -33 -57 -52 l-23 -34 0 -984 c0 -1097 -5
-1027 70 -1057 49 -19 236 -21 290 -3 67 23 70 41 70 385 l0 302 129 0 129 0
102 -198 c151 -291 231 -434 260 -463 45 -46 185 -62 330 -38 79 12 110 31
110 65 0 14 -47 105 -108 207 -165 277 -295 507 -291 511 2 2 38 20 79 42 96
49 206 156 243 236 48 102 61 177 61 358 0 174 -15 277 -55 386 -60 161 -215
275 -448 331 -53 12 -145 16 -461 20 -365 4 -398 2 -430 -14z m806 -402 c51
-29 80 -79 99 -168 18 -81 19 -222 4 -295 -34 -161 -111 -197 -416 -198 l-143
0 0 346 0 346 208 -4 c196 -3 209 -4 248 -27z"/>
<path d="M2435 2924 c-40 -21 -64 -43 -84 -79 -14 -27 -16 -119 -19 -963 -2
-638 1 -946 8 -973 14 -52 63 -106 108 -119 25 -8 201 -10 534 -8 483 3 497 4
525 24 48 35 68 88 68 184 0 100 -19 144 -75 172 -31 16 -72 18 -383 18 l-348
0 2 240 1 240 286 1 c311 0 341 4 376 52 18 25 21 42 21 140 0 95 -3 117 -21
147 -34 59 -40 60 -366 60 l-298 0 0 244 0 245 343 3 c310 3 345 5 368 21 40
27 54 71 54 172 0 103 -16 144 -68 175 -31 19 -54 20 -517 20 -420 0 -489 -2
-515 -16z"/>
<path d="M3948 2918 c-49 -13 -84 -55 -97 -118 -14 -66 -15 -1917 -1 -1954 16
-44 63 -60 175 -60 120 0 178 15 203 51 16 25 17 75 17 675 0 357 3 640 7 631
4 -10 75 -268 159 -573 83 -305 156 -566 162 -579 7 -13 25 -34 40 -45 26 -19
42 -21 172 -21 130 0 146 2 172 21 35 26 34 21 220 696 l148 536 5 -663 c5
-630 6 -664 24 -684 29 -32 83 -45 186 -45 101 1 149 16 170 53 7 13 10 341
10 983 -1 1093 2 1044 -75 1083 -34 17 -65 20 -207 23 -187 4 -261 -9 -296
-52 -11 -14 -38 -103 -65 -213 -25 -103 -95 -388 -155 -633 -60 -245 -115
-483 -122 -530 l-13 -85 -13 75 c-17 100 -320 1322 -339 1366 -24 58 -61 68
-270 71 -102 1 -196 -3 -217 -9z"/>
</g>
</svg>
